<svg xmlns="http://www.w3.org/2000/svg" width="32" height="32" viewBox="0 0 32 32">
    <g fill="#0D25BE" fill-rule="evenodd">
        <path d="M15.5 5.344a5.48 5.48 0 0 0-5.469 5.468 5.48 5.48 0 0 0 5.469 5.47 5.48 5.48 0 0 0 5.469-5.47A5.48 5.48 0 0 0 15.5 5.345zm0 1.562a3.894 3.894 0 0 1 3.906 3.907 3.894 3.894 0 0 1-3.906 3.906 3.894 3.894 0 0 1-3.906-3.906A3.894 3.894 0 0 1 15.5 6.905zM22.519 19.395a.781.781 0 0 0-.77.792v1.563h-1.562a.781.781 0 1 0 0 1.562h1.563v1.563a.781.781 0 1 0 1.562 0v-1.563h1.563a.781.781 0 1 0 0-1.562h-1.563v-1.563a.781.781 0 0 0-.793-.792z"/>
        <path d="M15.5 17.844c-4.729 0-7.266.598-8.713 1.947-.723.674-1.101 1.525-1.274 2.392-.172.867-.169 1.764-.169 2.692 0 .431.35.781.781.781h12.11a.781.781 0 1 0 0-1.562H6.953c.012-.568.007-1.167.094-1.605.13-.652.35-1.13.806-1.555.912-.85 3.061-1.528 7.648-1.528 1.524 0 2.787.072 3.822.205a.781.781 0 1 0 .198-1.55c-1.122-.144-2.447-.217-4.02-.217H15.5z"/>
    </g>
</svg>
