<svg xmlns="http://www.w3.org/2000/svg" width="32" height="32" viewBox="0 0 32 32">
    <path fill="#0D25BE" fill-rule="evenodd" d="M23.486 20a.872.872 0 0 1 .886.884v1.744h1.744a.872.872 0 1 1 0 1.744h-1.744v1.744a.872.872 0 1 1-1.744 0v-1.744h-1.744a.872.872 0 1 1 0-1.744h1.744v-1.744a.872.872 0 0 1 .858-.884zm-8.236-2c1.588 0 2.925.075 4.058.222a.79.79 0 0 1 .63.484.81.81 0 0 1-.1.796.783.783 0 0 1-.73.307c-1.045-.135-2.32-.209-3.858-.209-4.628 0-6.798.693-7.718 1.564-.46.435-.682.925-.813 1.592-.088.45-.083 1.062-.096 1.644H18.01a.786.786 0 0 1 .692.397.81.81 0 0 1 0 .806.786.786 0 0 1-.692.397H5.79A.794.794 0 0 1 5 25.2c0-.95-.003-1.869.17-2.756.175-.888.557-1.76 1.287-2.45C7.917 18.612 10.477 18 15.25 18zm.25-13c3.028 0 5.5 2.472 5.5 5.5S18.528 16 15.5 16a5.512 5.512 0 0 1-5.5-5.5C10 7.472 12.472 5 15.5 5zm0 1.571a3.917 3.917 0 0 0-3.929 3.929 3.917 3.917 0 0 0 3.929 3.929 3.917 3.917 0 0 0 3.929-3.929A3.917 3.917 0 0 0 15.5 6.571z"/>
</svg>
