<svg xmlns="http://www.w3.org/2000/svg" width="36" height="36" viewBox="0 0 36 36">
    <g fill="none" fill-rule="evenodd">
        <path fill="#F7941F" fill-rule="nonzero" d="M18 0C8.059 0 0 8.059 0 18s8.059 18 18 18 18-8.059 18-18c0-4.774-1.896-9.352-5.272-12.728C27.352 1.896 22.774 0 18 0z"/>
        <path fill="#FFF" d="M17.786 20.714c-.987 0-1.786-.8-1.786-1.785v-7.143c0-.987.8-1.786 1.786-1.786s1.785.8 1.785 1.786v7.143c0 .986-.8 1.785-1.785 1.785zm0 5.357c-.987 0-1.786-.8-1.786-1.785 0-.987.8-1.786 1.786-1.786s1.785.8 1.785 1.786-.8 1.785-1.785 1.785z"/>
    </g>
</svg>
