<svg xmlns="http://www.w3.org/2000/svg" width="32" height="32" viewBox="0 0 32 32">
    <path fill="#0D25BE" d="M16 4c6.617 0 12 5.383 12 12s-5.383 12-12 12S4 22.617 4 16 9.383 4 16 4zm0 1.846C10.401 5.846 5.846 10.401 5.846 16S10.401 26.154 16 26.154 26.154 21.599 26.154 16 21.599 5.846 16 5.846zm-1.825 9.501c.36.36.36.945 0 1.306l-.563.561h2.537c.51 0 .923.414.923.924s-.413.923-.923.923l-2.537-.001.563.562c.36.361.36.945 0 1.306-.18.18-.417.27-.653.27-.236 0-.472-.09-.653-.27l-2.137-2.138-.068-.075-.014-.018.082.093c-.035-.035-.067-.072-.096-.112-.015-.02-.029-.042-.042-.064-.01-.015-.018-.03-.026-.046-.01-.019-.02-.038-.028-.058l-.016-.039c-.012-.03-.022-.06-.03-.091l-.004-.013c-.019-.074-.028-.15-.028-.23 0-.078.01-.154.028-.226l.009-.033c.008-.028.017-.055.027-.081l.012-.028.03-.063.026-.045.037-.057.026-.034c.023-.03.048-.058.075-.085l2.137-2.138c.36-.36.945-.36 1.306 0zm4.956-4.275l2.137 2.138c.028.028.055.058.08.09l-.08-.09c.035.035.067.072.096.112.015.02.029.042.042.064.01.015.018.03.026.046.01.019.02.038.028.058l.016.039c.01.026.02.053.028.081l.006.023c.019.074.028.15.028.23 0 .078-.01.154-.028.226l-.009.033c-.007.025-.015.05-.025.074l-.014.035-.03.063-.026.045-.037.057-.026.034c-.018.023-.037.046-.058.068l-.017.017-2.137 2.138c-.18.18-.417.27-.653.27-.236 0-.472-.09-.653-.27-.36-.36-.36-.945 0-1.306l.562-.562h-2.536c-.51 0-.923-.413-.923-.923s.413-.923.923-.923h2.536l-.562-.561c-.36-.361-.36-.945 0-1.306.361-.36.945-.36 1.306 0z"/>
</svg>
