<svg xmlns="http://www.w3.org/2000/svg" width="18" height="18" viewBox="0 0 18 18">
    <g fill="none" fill-rule="evenodd">
        <g fill="#5D5D5E" fill-rule="nonzero">
            <g>
                <g>
                    <g>
                        <path d="M9 0c4.97 0 9 4.03 9 9s-4.03 9-9 9-9-4.03-9-9 4.03-9 9-9zm0 1C4.582 1 1 4.582 1 9s3.582 8 8 8 8-3.582 8-8-3.582-8-8-8zm0 5l5 5-1.18 1.18L9 8.34l-3.82 3.84L4 11l5-5z" transform="translate(-837 -496) translate(824 410) translate(1 77) translate(12 9)"/>
                    </g>
                </g>
            </g>
        </g>
    </g>
</svg>
