<svg xmlns="http://www.w3.org/2000/svg" width="32" height="32" viewBox="0 0 32 32">
    <path fill="#0D25BE" fill-rule="nonzero" d="M25 9a1 1 0 0 1 0 2h-1.139l-.004.134-.874 13A2 2 0 0 1 20.987 26h-9.974a2 2 0 0 1-1.996-1.866l-.874-13L8.14 11H7a1 1 0 0 1 0-2h18zm-3.141 2h-11.72l.874 13h9.974l.87-12.933.002-.067zM14 13a1 1 0 0 1 1 1v7a1 1 0 0 1-.883.993L14 22a1 1 0 0 1-1-1v-7a1 1 0 0 1 .883-.993L14 13zm4 0a1 1 0 0 1 1 1v7a1 1 0 0 1-.883.993L18 22a1 1 0 0 1-1-1v-7a1 1 0 0 1 .883-.993L18 13zm1-7a1 1 0 0 1 0 2h-6a1 1 0 0 1 0-2h6z"/>
</svg>
