<svg xmlns="http://www.w3.org/2000/svg" width="32" height="32" viewBox="0 0 32 32">
    <path fill="#1D1D1F" fill-rule="evenodd" d="M28.104 21.92l-6.8-3.874v-1.083c1.018-1.374 1.67-3.249 1.833-5.498h.285a.826.826 0 0 0 .814-.833c0-.625-.244-1.208-.651-1.75V5.8a3.16 3.16 0 0 0-1.833-2.874l-3.501-1.582a4.227 4.227 0 0 0-3.339 0L11.41 2.926c-1.14.5-1.832 1.625-1.832 2.874v3.124c-.407.5-.61 1.083-.61 1.708 0 .458.366.833.814.833h.163c.162 2.083.814 3.915 1.832 5.29v1.25L4.896 21.92c-.57.333-.896.916-.896 1.583v6.664c0 .458.366.833.814.833h23.372a.826.826 0 0 0 .814-.833v-6.664c0-.667-.366-1.292-.896-1.583zM12.021 4.468l3.502-1.583c.651-.292 1.384-.292 1.995 0l3.502 1.583c.529.25.855.75.855 1.332v1.791c-1.344-.708-3.217-1.166-5.334-1.166-2.158 0-4.031.458-5.375 1.166v-1.79c.04-.584.367-1.125.855-1.333zm4.56 3.623c2.647 0 4.764.792 5.62 1.708H10.962c.855-.916 2.972-1.708 5.618-1.708zm-5.048 3.374h9.934c-.244 3.04-1.628 6.206-4.967 6.206-2.647 0-4.642-2.624-4.967-6.206zM8.805 29.334H5.629v-5.831c0-.042.04-.084.081-.125l3.135-1.791v7.747h-.04zm13.762 0H10.433v-3.499h12.093v3.499h.04zm0-5.165H10.433V20.67l2.484-1.416c.244-.167.407-.416.407-.708v-.167c.937.625 1.995 1 3.135 1 1.181 0 2.24-.333 3.135-.875v.042c0 .292.163.583.408.708l2.483 1.416v3.499h.082zm4.804 5.165h-3.176v-7.747l3.136 1.79c.04.042.081.084.081.126v5.83h-.04z"/>
</svg>
