<svg xmlns="http://www.w3.org/2000/svg" width="24" height="24" viewBox="0 0 24 24">
    <path fill="#FFF" d="M12.027 16.554c.25 0 .464-.09.643-.268l4.178-4.179c.197-.178.295-.393.295-.643s-.094-.468-.281-.656c-.188-.187-.407-.281-.657-.281-.25 0-.464.098-.642.294l-2.599 2.572V3.937c0-.267-.093-.49-.281-.67-.187-.178-.406-.267-.656-.267s-.464.09-.643.268c-.179.178-.268.402-.268.67v9.455l-2.598-2.598c-.197-.179-.42-.268-.67-.268-.25 0-.464.094-.643.281-.178.188-.268.406-.268.656s.09.465.268.643l4.179 4.179c.178.178.393.268.643.268zM22.339 21c.465 0 .857-.165 1.179-.496.321-.33.482-.718.482-1.165v-2.973c0-.25-.09-.464-.268-.643-.178-.196-.397-.294-.656-.294s-.478.093-.656.28c-.179.188-.268.407-.268.657v2.223c0 .161-.054.295-.16.402-.108.107-.242.16-.403.16H2.411c-.161 0-.295-.053-.402-.16-.107-.107-.16-.241-.16-.402v-2.223c0-.25-.09-.469-.269-.656-.178-.188-.397-.281-.656-.281s-.478.093-.656.28c-.179.188-.268.407-.268.657v2.973c0 .465.16.857.482 1.179.322.321.714.482 1.179.482h20.678z"/>
</svg>
