<svg xmlns="http://www.w3.org/2000/svg" width="32" height="32" viewBox="0 0 32 32">
    <path fill="#0D25BE" fill-rule="nonzero" d="M24.726 8.27l-1.208-1.207A3.623 3.623 0 0 0 20.934 6c-.979 0-1.895.375-2.583 1.063L8.04 17.374a3.202 3.202 0 0 0-.917 1.708L6.018 24.5c-.063.354.041.708.291.98.209.207.48.312.75.312.063 0 .146 0 .209-.021l5.416-1.104a3.348 3.348 0 0 0 1.709-.917l10.312-10.313a3.623 3.623 0 0 0 1.063-2.583c.02-.979-.354-1.875-1.042-2.583zm-2.375 5.126l-9.083 9.083-1.375-1.375 9.083-9.083 1.375 1.375zM9.31 18.5l9.084-9.063 1.375 1.376-9.084 9.083L9.31 18.5zm2.25 4.667l-2.52.52-.917-.916.52-2.521 2.917 2.917zm12-10.98L19.601 8.23c.354-.333.833-.52 1.333-.52.521 0 1 .208 1.375.562l1.209 1.208c.75.75.75 1.959.041 2.709z"/>
</svg>
