<svg xmlns="http://www.w3.org/2000/svg" width="36" height="36" viewBox="0 0 36 36">
    <g fill="none">
        <path fill="#CC3528" d="M18 0C8.059 0 0 8.059 0 18s8.059 18 18 18 18-8.059 18-18c0-4.774-1.896-9.352-5.272-12.728C27.352 1.896 22.774 0 18 0z"/>
        <path fill="#FFF" d="M23.094 20.538c.34.338.532.798.532 1.278s-.191.94-.532 1.278c-.34.337-.8.525-1.278.522-.478.003-.938-.185-1.278-.522L18 20.538l-2.538 2.556c-.34.337-.8.525-1.278.522-.478.003-.938-.185-1.278-.522-.34-.338-.532-.798-.532-1.278s.191-.94.532-1.278L15.462 18l-2.556-2.538c-.457-.457-.635-1.122-.468-1.746.167-.623.655-1.11 1.278-1.278.624-.167 1.29.011 1.746.468L18 15.462l2.538-2.556c.457-.457 1.122-.635 1.746-.468.623.167 1.11.655 1.278 1.278.167.624-.011 1.29-.468 1.746L20.538 18l2.556 2.538z"/>
    </g>
</svg>
