<svg xmlns="http://www.w3.org/2000/svg" width="18" height="18" viewBox="0 0 18 18">
    <g fill="none" fill-rule="evenodd">
        <g fill="#5D5D5E" fill-rule="nonzero">
            <g>
                <g>
                    <g>
                        <path d="M9 0c4.97 0 9 4.03 9 9s-4.03 9-9 9-9-4.03-9-9 4.03-9 9-9zm0 1C4.582 1 1 4.582 1 9s3.582 8 8 8 8-3.582 8-8-3.582-8-8-8zm3.82 6L14 8.18l-5 5-5-5L5.18 7 9 10.84 12.82 7z" transform="translate(-1193 -424) translate(1180 410) translate(1 5) translate(12 9)"/>
                    </g>
                </g>
            </g>
        </g>
    </g>
</svg>
