<svg xmlns="http://www.w3.org/2000/svg" width="186" height="186" viewBox="0 0 186 186">
    <g fill="none" fill-rule="evenodd">
        <g fill-rule="nonzero">
            <g>
                <path fill="#0E76BC" d="M82.418 40.476l-.862-3.157c-.352-1.293-1.747-2.076-3.127-1.742-1.374.333-2.201 1.653-1.847 2.948l.862 3.157c.297 1.092 1.34 1.818 2.486 1.818.21 0 .426-.024.64-.076 1.375-.333 2.202-1.652 1.848-2.948z"/>
                <path fill="#9947FD" d="M77.59 31.424c1.36-.336 2.18-1.67 1.829-2.973l-1.91-7.116c-.351-1.307-1.743-2.094-3.1-1.757-1.36.336-2.178 1.668-1.828 2.972l1.91 7.117c.296 1.101 1.33 1.833 2.463 1.833.21 0 .424-.024.636-.076z"/>
                <path fill="#47CEFD" d="M51.213 50.177c-.938.914-.952 2.41-.032 3.343l2.242 2.271c.465.471 1.081.709 1.698.709.602 0 1.202-.224 1.666-.676.938-.915.952-2.41.032-3.343l-2.242-2.272c-.92-.93-2.425-.949-3.364-.032z"/>
                <path fill="#9947FD" d="M41.157 39.19c-.864.932-.877 2.457-.03 3.408l4.618 5.18c.429.48.996.722 1.564.722.554 0 1.108-.228 1.534-.69.864-.932.877-2.457.03-3.408l-4.618-5.18c-.847-.948-2.236-.967-3.098-.032z"/>
                <path fill="#0E76BC" d="M35.59 76.36c-.36 1.351.395 2.753 1.685 3.128l3.146.918c.218.064.437.094.653.094 1.062 0 2.037-.734 2.337-1.858.359-1.352-.396-2.754-1.686-3.129l-3.146-.918c-1.293-.38-2.628.412-2.99 1.764z"/>
                <path fill="#9947FD" d="M20.59 72.324c-.362 1.327.4 2.703 1.702 3.07l7.1 2.013c.22.064.442.093.66.093 1.072 0 2.056-.72 2.358-1.823.362-1.327-.4-2.703-1.702-3.07l-7.1-2.014c-1.303-.372-2.655.404-3.018 1.731z"/>
                <path fill="#F7941F" d="M37.92 109.5c.2 0 .404-.025.606-.08l3.157-.863c1.294-.356 2.073-1.755 1.74-3.13-.333-1.369-1.659-2.2-2.949-1.845l-3.157.862c-1.294.356-2.073 1.756-1.74 3.13.281 1.156 1.265 1.926 2.343 1.926z"/>
                <path fill="#9947FD" d="M22.551 113.42l7.116-1.91c1.306-.35 2.091-1.74 1.755-3.1-.336-1.357-1.67-2.18-2.973-1.83l-7.116 1.911c-1.306.35-2.091 1.74-1.755 3.098.283 1.148 1.275 1.911 2.363 1.911.201 0 .406-.025.61-.08z"/>
                <path fill="#ED223B" d="M55.791 132.577c.933-.92.947-2.425.032-3.364-.914-.936-2.41-.954-3.342-.032l-2.272 2.242c-.933.92-.947 2.425-.032 3.364.462.474 1.074.713 1.687.713.598 0 1.195-.225 1.655-.68l2.272-2.243z"/>
                <path fill="#F7941F" d="M39.19 144.843c.472.437 1.095.657 1.72.657.61 0 1.218-.208 1.688-.627l5.18-4.618c.95-.847.964-2.234.032-3.098-.932-.862-2.457-.88-3.408-.03l-5.18 4.618c-.95.847-.964 2.234-.032 3.098z"/>
                <path fill="#ED223B" d="M79.49 148.723l.916-3.147c.376-1.29-.414-2.628-1.766-2.989-1.355-.353-2.754.396-3.13 1.69l-.916 3.147c-.376 1.29.414 2.628 1.766 2.988.229.06.457.088.683.088 1.113 0 2.134-.701 2.447-1.777z"/>
                <path fill="#0E76BC" d="M72.325 165.41c.224.061.448.09.67.09 1.092 0 2.094-.708 2.4-1.791l2.013-7.1c.369-1.304-.406-2.655-1.733-3.017-1.332-.368-2.702.397-3.07 1.7l-2.013 7.101c-.369 1.304.406 2.655 1.733 3.016z"/>
                <path fill="#47CEFD" d="M104.444 148.682c.297 1.092 1.34 1.818 2.486 1.818.21 0 .426-.024.64-.076 1.375-.333 2.202-1.652 1.848-2.948l-.862-3.156c-.352-1.293-1.748-2.078-3.127-1.742-1.374.333-2.201 1.652-1.847 2.948l.862 3.156z"/>
                <path fill="#F7941F" d="M108.492 164.667c.295 1.101 1.33 1.833 2.462 1.833.21 0 .424-.024.636-.076 1.36-.336 2.18-1.67 1.829-2.973l-1.91-7.117c-.351-1.304-1.74-2.091-3.1-1.757-1.36.336-2.178 1.669-1.828 2.973l1.91 7.117z"/>
                <path fill="#2C9118" d="M134.787 135.824c.938-.915.952-2.41.032-3.343l-2.242-2.272c-.92-.93-2.425-.949-3.364-.032-.938.914-.952 2.41-.032 3.343l2.242 2.271c.465.471 1.081.709 1.698.709.602 0 1.202-.224 1.666-.676z"/>
                <path fill="#F7941F" d="M137.127 141.598l4.618 5.18c.429.48.996.722 1.564.722.554 0 1.108-.228 1.534-.69.864-.932.877-2.457.03-3.408l-4.618-5.18c-.847-.948-2.236-.967-3.098-.032-.864.932-.877 2.457-.03 3.408z"/>
                <path fill="#0E76BC" d="M144.275 110.488l3.146.918c.218.064.437.094.653.094 1.062 0 2.037-.734 2.337-1.858.359-1.352-.396-2.754-1.686-3.128l-3.146-.918c-1.292-.382-2.628.412-2.99 1.764-.359 1.352.396 2.753 1.686 3.128z"/>
                <path fill="#9947FD" d="M153.59 110.324c-.362 1.327.4 2.703 1.702 3.07l7.1 2.013c.22.064.442.093.66.093 1.072 0 2.056-.72 2.358-1.823.362-1.327-.4-2.703-1.702-3.07l-7.1-2.014c-1.304-.372-2.655.404-3.018 1.731z"/>
                <path fill="#ED223B" d="M147.474 76.582l-3.157.863c-1.294.356-2.073 1.755-1.74 3.13.281 1.155 1.265 1.925 2.343 1.925.2 0 .404-.025.606-.08l3.157-.863c1.294-.356 2.073-1.755 1.74-3.129-.332-1.372-1.653-2.202-2.949-1.846z"/>
                <path fill="#2C9118" d="M163.449 72.58l-7.116 1.91c-1.306.35-2.091 1.74-1.755 3.102.283 1.145 1.275 1.908 2.363 1.908.201 0 .406-.025.61-.08l7.116-1.91c1.306-.35 2.091-1.74 1.755-3.1-.336-1.361-1.668-2.176-2.973-1.83z"/>
                <path fill="#9947FD" d="M132.48 51.18l-2.271 2.243c-.933.92-.947 2.425-.032 3.364.462.474 1.074.713 1.687.713.598 0 1.195-.225 1.655-.68l2.272-2.243c.933-.92.947-2.425.032-3.364-.914-.936-2.41-.954-3.342-.032z"/>
                <path fill="#2C9118" d="M143.402 41.127l-5.18 4.618c-.95.847-.964 2.234-.032 3.098.472.437 1.095.657 1.72.657.61 0 1.218-.208 1.688-.627l5.18-4.618c.95-.847.964-2.234.032-3.098-.932-.862-2.457-.88-3.408-.03z"/>
                <path fill="#9947FD" d="M106.51 37.277l-.916 3.147c-.376 1.29.414 2.628 1.766 2.988.229.06.457.088.683.088 1.113 0 2.134-.701 2.447-1.777l.916-3.147c.376-1.29-.414-2.628-1.766-2.989-1.357-.353-2.754.396-3.13 1.69z"/>
                <path fill="#2C9118" d="M110.325 32.41c.224.061.448.09.67.09 1.092 0 2.094-.708 2.4-1.791l2.013-7.1c.369-1.304-.406-2.655-1.733-3.017-1.33-.368-2.702.397-3.07 1.7l-2.013 7.101c-.369 1.304.406 2.655 1.733 3.016z"/>
                <path fill="#F7941F" d="M95.5 35.948c0-1.353-1.12-2.448-2.5-2.448s-2.5 1.095-2.5 2.448v3.104c0 1.353 1.12 2.448 2.5 2.448s2.5-1.095 2.5-2.448v-3.104z"/>
                <path fill="#ED223B" d="M95.5 18.843c0-1.295-1.12-2.343-2.5-2.343s-2.5 1.048-2.5 2.343v5.314c0 1.295 1.12 2.343 2.5 2.343s2.5-1.048 2.5-2.343v-5.314z"/>
                <path fill="#9947FD" d="M95.5 2.843C95.5 1.548 94.38.5 93 .5s-2.5 1.048-2.5 2.343v5.314c0 1.295 1.12 2.343 2.5 2.343s2.5-1.048 2.5-2.343V2.843zM62.638 40.847c-1.089.714-1.461 2.295-.832 3.528l1.445 2.834c.421.83 1.186 1.291 1.974 1.291.386 0 .778-.11 1.137-.345 1.089-.714 1.461-2.295.832-3.528l-1.445-2.834c-.628-1.238-2.022-1.66-3.111-.946z"/>
                <path fill="#F7941F" d="M53.842 29.906l2.894 4.46c.472.726 1.331 1.134 2.214 1.134.432 0 .87-.098 1.273-.304 1.22-.627 1.64-2.014.935-3.1l-2.894-4.46c-.705-1.085-2.266-1.46-3.487-.83-1.22.627-1.64 2.014-.935 3.1z"/>
                <path fill="#9947FD" d="M45.776 12.804c-1.22.628-1.638 2.015-.934 3.101l2.895 4.46c.473.727 1.33 1.135 2.213 1.135.432 0 .871-.098 1.274-.304 1.22-.627 1.638-2.015.934-3.1l-2.895-4.46c-.706-1.084-2.265-1.46-3.487-.832z"/>
                <path fill="#47CEFD" d="M48.154 66.361c.713-1.09.289-2.482-.946-3.111l-2.837-1.443c-1.237-.632-2.814-.256-3.525.834-.713 1.09-.289 2.482.946 3.111l2.837 1.443c.405.207.85.305 1.287.305.892 0 1.76-.41 2.238-1.139z"/>
                <path fill="#ED223B" d="M32.095 61.159c.357.231.747.341 1.132.341.785 0 1.548-.456 1.968-1.276.627-1.218.256-2.78-.83-3.486l-4.46-2.895c-1.083-.705-2.475-.289-3.1.934-.627 1.219-.256 2.781.83 3.486l4.46 2.896z"/>
                <path fill="#2C9118" d="M20.365 47.736l-4.46-2.894c-1.09-.705-2.474-.284-3.101.935-.626 1.221-.254 2.782.831 3.487l4.46 2.894c.358.232.748.342 1.132.342.785 0 1.548-.459 1.969-1.276.626-1.222.254-2.782-.831-3.488z"/>
                <path fill="#F7941F" d="M41.5 93c0-1.382-1.096-2.5-2.448-2.5h-3.104c-1.352 0-2.448 1.118-2.448 2.5s1.096 2.5 2.448 2.5h3.104c1.352 0 2.448-1.118 2.448-2.5z"/>
                <path fill="#47CEFD" d="M18.843 90.5c-1.294 0-2.343 1.118-2.343 2.5s1.049 2.5 2.343 2.5h5.314c1.294 0 2.343-1.118 2.343-2.5s-1.049-2.5-2.343-2.5h-5.314z"/>
                <path fill="#9947FD" d="M2.843 95.5h5.314c1.294 0 2.343-1.118 2.343-2.5s-1.049-2.5-2.343-2.5H2.843C1.549 90.5.5 91.618.5 93s1.049 2.5 2.343 2.5z"/>
                <path fill="#ED223B" d="M40.846 123.361c.477.73 1.346 1.139 2.238 1.139.438 0 .882-.098 1.287-.305l2.837-1.443c1.235-.63 1.659-2.022.946-3.112-.713-1.087-2.295-1.465-3.525-.834l-2.837 1.444c-1.235.63-1.659 2.021-.946 3.111z"/>
                <path fill="#2C9118" d="M28.773 132.5c.385 0 .775-.11 1.132-.341l4.46-2.896c1.086-.705 1.457-2.268.83-3.486-.626-1.224-2.02-1.638-3.1-.935l-4.46 2.896c-1.086.705-1.457 2.267-.83 3.486.42.82 1.183 1.276 1.968 1.276zM12.804 140.224c.421.817 1.184 1.276 1.969 1.276.384 0 .774-.11 1.132-.342l4.46-2.894c1.085-.705 1.457-2.266.831-3.487-.627-1.219-2.013-1.64-3.101-.935l-4.46 2.894c-1.085.706-1.457 2.266-.831 3.488z"/>
                <path fill="#0E76BC" d="M62.638 145.155c.36.234.75.345 1.137.345.788 0 1.553-.461 1.974-1.291l1.445-2.834c.63-1.233.257-2.814-.832-3.528-1.09-.713-2.483-.292-3.111.946l-1.445 2.834c-.63 1.233-.257 2.814.832 3.528z"/>
                <path fill="#47CEFD" d="M54.777 159.196c.402.206.841.304 1.273.304.883 0 1.742-.408 2.214-1.135l2.894-4.46c.704-1.086.286-2.473-.935-3.1-1.224-.628-2.784-.253-3.487.83l-2.894 4.46c-.704 1.086-.286 2.474.935 3.101z"/>
                <path fill="#ED223B" d="M45.776 173.196c.403.206.842.304 1.274.304.882 0 1.74-.408 2.213-1.135l2.895-4.46c.704-1.085.286-2.473-.934-3.1-1.225-.63-2.783-.252-3.487.831l-2.895 4.46c-.704 1.086-.286 2.473.934 3.1z"/>
                <path fill="#9947FD" d="M95.5 146.948c0-1.353-1.12-2.448-2.5-2.448s-2.5 1.095-2.5 2.448v3.104c0 1.353 1.12 2.448 2.5 2.448s2.5-1.095 2.5-2.448v-3.104z"/>
                <path fill="#0E76BC" d="M95.5 161.843c0-1.295-1.12-2.343-2.5-2.343s-2.5 1.048-2.5 2.343v5.314c0 1.295 1.12 2.343 2.5 2.343s2.5-1.048 2.5-2.343v-5.314z"/>
                <path fill="#2C9118" d="M93 175.5c-1.38 0-2.5 1.048-2.5 2.343v5.314c0 1.295 1.12 2.343 2.5 2.343s2.5-1.048 2.5-2.343v-5.314c0-1.295-1.12-2.343-2.5-2.343z"/>
                <path fill="#0E76BC" d="M120.25 144.209c.422.83 1.187 1.291 1.975 1.291.386 0 .778-.11 1.137-.345 1.089-.714 1.461-2.295.832-3.528l-1.445-2.834c-.628-1.238-2.022-1.66-3.111-.946-1.089.714-1.461 2.295-.832 3.528l1.445 2.834z"/>
                <path fill="#47CEFD" d="M132.158 156.095l-2.894-4.46c-.705-1.083-2.265-1.458-3.487-.83-1.22.627-1.64 2.014-.935 3.1l2.894 4.46c.472.727 1.331 1.135 2.214 1.135.432 0 .87-.098 1.273-.304 1.22-.627 1.64-2.015.935-3.1z"/>
                <path fill="#2C9118" d="M134.776 164.805c-1.22.627-1.638 2.015-.934 3.1l2.895 4.46c.473.727 1.33 1.135 2.213 1.135.432 0 .871-.098 1.274-.304 1.22-.627 1.638-2.014.934-3.1l-2.895-4.46c-.705-1.083-2.264-1.46-3.487-.83z"/>
                <path fill="#0E76BC" d="M138.792 122.752l2.837 1.443c.405.207.85.305 1.287.305.892 0 1.76-.41 2.238-1.139.713-1.09.289-2.482-.946-3.111l-2.837-1.444c-1.235-.631-2.813-.253-3.525.834-.713 1.09-.289 2.482.946 3.112z"/>
                <path fill="#F7941F" d="M150.805 125.777c-.627 1.218-.256 2.78.83 3.486l4.46 2.896c.357.231.747.341 1.132.341.785 0 1.548-.456 1.968-1.276.627-1.219.256-2.781-.83-3.486l-4.46-2.896c-1.085-.703-2.475-.29-3.1.935zM164.804 134.777c-.626 1.221-.254 2.782.831 3.487l4.46 2.894c.358.232.748.342 1.132.342.785 0 1.548-.459 1.969-1.276.626-1.222.254-2.782-.831-3.488l-4.46-2.894c-1.09-.705-2.474-.284-3.101.935z"/>
                <path fill="#9947FD" d="M144.5 93c0 1.382 1.096 2.5 2.448 2.5h3.104c1.352 0 2.448-1.118 2.448-2.5s-1.096-2.5-2.448-2.5h-3.104c-1.352 0-2.448 1.118-2.448 2.5z"/>
                <path fill="#2C9118" d="M167.157 90.5h-5.314c-1.294 0-2.343 1.118-2.343 2.5s1.049 2.5 2.343 2.5h5.314c1.294 0 2.343-1.118 2.343-2.5s-1.049-2.5-2.343-2.5z"/>
                <path fill="#ED223B" d="M183.157 90.5h-5.314c-1.294 0-2.343 1.118-2.343 2.5s1.049 2.5 2.343 2.5h5.314c1.294 0 2.343-1.118 2.343-2.5s-1.049-2.5-2.343-2.5z"/>
                <path fill="#0E76BC" d="M145.154 62.64c-.713-1.09-2.294-1.465-3.525-.833l-2.837 1.443c-1.235.63-1.659 2.022-.946 3.111.477.73 1.346 1.139 2.238 1.139.438 0 .882-.098 1.287-.305l2.837-1.443c1.235-.63 1.659-2.022.946-3.111zM156.095 53.843l-4.46 2.895c-1.086.706-1.457 2.268-.83 3.486.42.82 1.183 1.276 1.968 1.276.385 0 .775-.11 1.132-.341l4.46-2.896c1.086-.705 1.457-2.267.83-3.486-.627-1.223-2.019-1.64-3.1-.934z"/>
                <path fill="#ED223B" d="M170.095 44.842l-4.46 2.894c-1.085.706-1.457 2.266-.831 3.488.421.817 1.184 1.276 1.969 1.276.384 0 .774-.11 1.132-.342l4.46-2.894c1.085-.705 1.457-2.266.831-3.487-.628-1.22-2.016-1.64-3.101-.935zM120.775 48.5c.788 0 1.553-.461 1.974-1.291l1.445-2.834c.63-1.233.257-2.814-.832-3.528-1.09-.713-2.483-.292-3.111.946l-1.445 2.834c-.63 1.233-.257 2.814.832 3.528.36.234.75.345 1.137.345z"/>
                <path fill="#2C9118" d="M131.223 26.806c-1.226-.63-2.783-.255-3.487.83l-2.894 4.46c-.704 1.086-.286 2.473.935 3.1.402.206.84.304 1.273.304.883 0 1.742-.408 2.214-1.135l2.894-4.459c.704-1.086.286-2.473-.935-3.1zM140.224 12.804c-1.228-.627-2.782-.252-3.487.831l-2.895 4.46c-.704 1.086-.286 2.474.934 3.101.403.206.842.304 1.274.304.882 0 1.74-.408 2.213-1.135l2.895-4.46c.704-1.086.286-2.473-.934-3.1z"/>
            </g>
        </g>
    </g>
</svg>
