<?xml version="1.0" encoding="UTF-8"?>
<svg width="32px" height="32px" viewBox="0 0 32 32" version="1.1" xmlns="http://www.w3.org/2000/svg" xmlns:xlink="http://www.w3.org/1999/xlink">
    <title>60CF006F-7914-4CA6-9850-0749C084B03A</title>
    <g id="drafts" stroke="none" stroke-width="1" fill="none" fill-rule="evenodd">
        <g id="חבילות-טולטיפ-הודעות" transform="translate(-59.000000, -734.000000)" fill="#5D5D5E" fill-rule="nonzero">
            <g id="ic/comment" transform="translate(59.000000, 734.000000)">
                <path d="M24,6 C25.1045695,6 26,6.8954305 26,8 L26,20 C26,21.1045695 25.1045695,22 24,22 L16.721,22 L10.0549316,26 L10.054,22 L8,22 C6.8954305,22 6,21.1045695 6,20 L6,8 C6,6.8954305 6.8954305,6 8,6 L24,6 Z M21,15 L11,15 C10.4477153,15 10,15.4477153 10,16 C10,16.5522847 10.4477153,17 11,17 L11,17 L21,17 C21.5522847,17 22,16.5522847 22,16 C22,15.4477153 21.5522847,15 21,15 L21,15 Z M21,11 L11,11 C10.4477153,11 10,11.4477153 10,12 C10,12.5522847 10.4477153,13 11,13 L11,13 L21,13 C21.5522847,13 22,12.5522847 22,12 C22,11.4477153 21.5522847,11 21,11 L21,11 Z" id="Combined-Shape"></path>
            </g>
        </g>
    </g>
</svg>