<svg xmlns="http://www.w3.org/2000/svg" width="35" height="30" viewBox="0 0 35 30">
    <g fill="none" fill-rule="evenodd">
        <g fill="#CC3528" fill-rule="nonzero">
            <path d="M5.121 30c-1.766 0-3.395-.956-4.317-2.46-1.04-1.697-1.04-3.727-.177-5.504L12.07 3.416C13.364 1.522 15.052 0 17.505 0s4.14 1.522 5.436 3.416l11.383 18.523c.942 1.737.903 3.923-.137 5.602C33.264 29.044 31.655 30 29.869 30H5.12zm12.384-9.72c1.04 0 1.864.84 1.864 1.874 0 1.034-.824 1.854-1.864 1.854s-1.884-.82-1.884-1.854c0-1.035.844-1.874 1.884-1.874zm0-1.854c-.687 0-1.178-.567-1.256-1.25l-.628-5.602c-.098-.956.922-1.854 1.884-1.854.962 0 1.982.898 1.864 1.854l-.628 5.602c-.059.664-.53 1.25-1.236 1.25zM5.12 27.52H29.87c.922 0 1.707-.507 2.198-1.288.57-.937.55-2.069.098-3.045L20.861 4.802c-.805-1.172-1.806-2.323-3.356-2.323-1.55 0-2.571 1.151-3.376 2.323L2.845 23.188c-.471.995-.49 2.108.098 3.045.47.78 1.256 1.288 2.178 1.288z"/>
        </g>
    </g>
</svg>
