<svg xmlns="http://www.w3.org/2000/svg" width="151" height="103" viewBox="0 0 151 103">
    <defs>
        <linearGradient id="a" x1="97.021%" x2="0%" y1="48.705%" y2="51.295%">
            <stop offset="0%" stop-color="#F7941F"/>
            <stop offset="100%" stop-color="#FD5B00"/>
        </linearGradient>
        <linearGradient id="b" x1="97.021%" x2="0%" y1="34.844%" y2="65.156%">
            <stop offset="0%" stop-color="#F7941F"/>
            <stop offset="100%" stop-color="#FD5B00"/>
        </linearGradient>
    </defs>
    <g fill="none" fill-rule="evenodd">
        <g transform="translate(17.905)">
            <g transform="matrix(-1 0 0 1 112.487 0)">
                <path fill="#0D25BE" fill-rule="nonzero" d="M94.979 44.19c-9.529 0-17.253 7.724-17.253 17.253 0 9.528 7.724 17.252 17.253 17.252 9.528 0 17.252-7.724 17.252-17.252 0-9.529-7.724-17.253-17.252-17.253zm0 25.425a8.172 8.172 0 1 1 0-16.345 8.172 8.172 0 0 1 0 16.345zM29.601 44.13c-9.528 0-17.252 7.724-17.252 17.252 0 9.528 7.724 17.252 17.252 17.252 9.529 0 17.253-7.724 17.253-17.252 0-9.528-7.724-17.252-17.253-17.252zm0 25.424a8.172 8.172 0 1 1 0-16.344 8.172 8.172 0 0 1 0 16.344z"/>
                <rect width="19.185" height="3.087" x="60.721" y="10.533" fill="url(#a)" fill-rule="nonzero" rx="1.544"/>
                <path fill="#FD5B00" fill-rule="nonzero" d="M111.141 44.199a23.569 23.569 0 0 0-19.526-6.175c-.508-5.379-14.891-22.588-16.271-24.226l-.11-.174c0-.026 2.067-.058 2.096-.058h.76c1.358 0 2.46-1.1 2.462-2.46V2.634A2.633 2.633 0 0 0 77.922 0h-3.138c-4.198 0-7.754 3.323-7.787 7.522a7.558 7.558 0 0 0 2.248 5.448l1.34 1.395c5.583 5.978 7.577 8.982 7.577 16.344a21.53 21.53 0 0 1-21.53 21.531c-.64 0-1.272-.033-1.897-.087l-20.067 8.975a.036.036 0 1 0 0 .072h36.684v.037a3.149 3.149 0 0 0 3.105-2.742 20.703 20.703 0 0 1 34.723-12.157 1.453 1.453 0 0 0 2.237-.327 1.471 1.471 0 0 0-.276-1.812z"/>
                <rect width="64.651" height="35.594" y="25.606" fill="url(#b)" fill-rule="nonzero" rx="17.797"/>
                <rect width="64.651" height="35.594" y="25.606" fill="#FF7907" fill-rule="nonzero" rx="17.797"/>
                <rect width="14.528" height="4.722" x="37.531" y="29.299" fill="#FFF" opacity=".359" rx="2.361"/>
                <path fill="#FFF" fill-rule="nonzero" d="M30.328 29.299H18.063c-7.737 0-14.245 6.09-14.427 13.823A14.165 14.165 0 0 0 17.798 57.63h12.53a2.18 2.18 0 0 0 2.18-2.18V31.479a2.18 2.18 0 0 0-2.18-2.18z"/>
            </g>
            <rect width="20.945" height="7.385" x="60.427" y="16.708" fill="#0D25BE" fill-rule="nonzero" rx="3.693"/>
            <rect width="14.891" height="4.116" x="111.76" y="54.602" fill="#0D25BE" fill-rule="nonzero" rx="2.058"/>
            <rect width="17.555" height="4.116" x="115.271" y="48.549" fill="#0D25BE" fill-rule="nonzero" rx="2.058"/>
        </g>
        <path fill="#1D30AF" fill-rule="nonzero" d="M135.736 103.15c5.23 0 6.883-2.185 6.883-7.323v-9.072h-4.2v8.744c0 3.225-.461 4.4-3.523 4.4h-3.09l-.732-13.144h-4.2l.948 16.396h7.914zm1.138-6.476v-9.92h-3.984v9.92h3.984zm-15.124 6.477l3.822-16.396h-5.908v-2.733h-4.12v5.985h4.906l-2.954 13.144h4.254zm-8.05-6.75v-9.646h-4.336V96.4h4.336zm-13.633 6.75V90.007h.76c1.408 0 1.815.519 1.815 2.814v10.33h4.336V92.958c0-4.837-1.463-6.203-5.15-6.203h-6.097v16.396h4.336zm-7.02-6.75v-9.646h-4.336V96.4h4.336zm-6.722 6.75V92.767c0-4.373-1.22-6.012-4.933-6.012h-6.151v16.396h11.084zm-4.12-3.143H79.36v-10.11h1.192c1.193 0 1.653.628 1.653 2.76v7.35zm-17.97 3.143l3.821-16.396h-5.908v-2.733H58.03v5.985h4.905L59.98 103.15h4.255zm-7.698 0v-9.92c0-4.645-.84-6.476-5.339-6.476h-3.414v3.252h2.276c1.68 0 2.141.874 2.141 3.388v9.756h4.336zm-15.774 0c4.2 0 5.475-1.285 5.475-6.012v-4.4c0-4.673-1.274-5.984-5.475-5.984h-5.366v9.154h4.093v-5.957h.623c1.41 0 1.653.492 1.653 2.678v4.618c0 2.159-.298 2.65-1.761 2.65h-4.608v3.253h5.366zm-8.023 0V86.755h-4.336v16.396h4.336zm-15.232 0v-6.969c0-.491.082-.765.353-.929l3.631 7.898h4.2l-3.035-6.559c2.033-.437 3.28-1.393 3.28-4.782v-5.055h-4.228v6.23c0 .492-.054.765-.298.93l-3.306-7.16H13.93l2.656 5.738c-2.33.601-3.306 1.886-3.306 4.864v5.794h4.227zm-6.532 0V86.755H0v3.252h6.64v13.144h4.336zm-6.613 0V92.93H.027v10.22h4.336z"/>
    </g>
</svg>
