<svg xmlns="http://www.w3.org/2000/svg" width="207" height="35" viewBox="0 0 207 35">
    <defs>
        <linearGradient id="prefix__a" x1="97.021%" x2="0%" y1="34.844%" y2="65.156%">
            <stop offset="0%" stop-color="#F7941F"/>
            <stop offset="100%" stop-color="#FD5B00"/>
        </linearGradient>
    </defs>
    <g fill="none" fill-rule="evenodd">
        <path fill="#FFF" fill-rule="nonzero" d="M129.436 28c4.988 0 6.564-2.057 6.564-6.891V12.57h-4.006V20.8c0 3.034-.439 4.14-3.36 4.14h-2.945l-.698-12.369h-4.006L121.89 28h7.546zm1.085-6.094V12.57h-3.799v9.335h3.8zM116.1 28l3.644-15.429h-5.634V10h-3.928v5.631h4.677L112.042 28h4.058zm-7.677-6.351V12.57h-4.135v9.078h4.135zm-13 6.351V15.631h.724c1.343 0 1.731.489 1.731 2.649V28h4.135v-9.591c0-4.552-1.396-5.838-4.91-5.838h-5.815V28h4.135zm-6.695-6.351V12.57h-4.134v9.078h4.134zM82.318 28v-9.771c0-4.115-1.163-5.658-4.703-5.658h-5.867V28h10.57zm-3.928-2.957h-2.713v-9.514h1.137c1.137 0 1.576.591 1.576 2.597v6.917zM61.254 28l3.644-15.429h-5.634V10h-3.928v5.631h4.677L57.196 28h4.058zm-7.34 0v-9.334c0-4.372-.802-6.095-5.092-6.095h-3.256v3.06h2.17c1.603 0 2.042.823 2.042 3.189V28h4.135zM38.87 28c4.006 0 5.22-1.209 5.22-5.657v-4.14c0-4.397-1.214-5.632-5.22-5.632h-5.117v8.615h3.903V15.58h.594c1.344 0 1.577.463 1.577 2.52v4.346c0 2.031-.285 2.494-1.68 2.494h-4.394V28h5.117zm-7.65 0V12.571h-4.135V28h4.135zm-14.525 0v-6.557c0-.463.077-.72.336-.874L20.495 28H24.5l-2.894-6.171c1.938-.412 3.127-1.312 3.127-4.5V12.57H20.7v5.863c0 .463-.051.72-.284.875l-3.153-6.738h-3.98l2.533 5.4c-2.222.566-3.153 1.775-3.153 4.578V28h4.032zm-6.23 0V12.571H0v3.06h6.332V28h4.134zm-6.305 0v-9.617H.026V28H4.16z"/>
        <g transform="translate(146)">
            <g transform="matrix(-1 0 0 1 51.352 0)">
                <path fill="#FFF" fill-rule="nonzero" d="M42.165 19.618c-4.23 0-7.659 3.429-7.659 7.659s3.43 7.659 7.66 7.659 7.658-3.43 7.658-7.659c0-4.23-3.429-7.66-7.659-7.66zm0 11.287c-2.004 0-3.628-1.624-3.628-3.628s1.624-3.628 3.628-3.628 3.628 1.624 3.628 3.628c0 .962-.382 1.885-1.063 2.565-.68.68-1.603 1.063-2.565 1.063zM13.141 19.591c-4.23 0-7.659 3.43-7.659 7.66s3.43 7.658 7.66 7.658S20.8 31.48 20.8 27.25s-3.429-7.659-7.659-7.659zm0 11.287c-2.003 0-3.628-1.624-3.628-3.628s1.625-3.628 3.628-3.628c2.004 0 3.628 1.624 3.628 3.628 0 .962-.382 1.885-1.062 2.565-.68.68-1.603 1.063-2.566 1.063z"/>
                <rect width="8.517" height="1.371" x="26.957" y="4.676" fill="#FF7907" fill-rule="nonzero" rx=".685"/>
                <path fill="#FD5B00" fill-rule="nonzero" d="M49.34 19.622c-2.32-2.187-5.512-3.196-8.668-2.741-.226-2.388-6.611-10.028-7.224-10.755l-.048-.078c0-.011.917-.026.93-.026h.337c.603 0 1.093-.488 1.094-1.091V1.169c0-.645-.523-1.168-1.168-1.169H33.2c-1.864 0-3.443 1.475-3.457 3.34-.008.907.352 1.78.998 2.418l.595.62c2.478 2.653 3.364 3.987 3.364 7.255 0 2.535-1.008 4.966-2.8 6.759-1.793 1.793-4.224 2.8-6.759 2.8-.284 0-.564-.015-.842-.04l-8.908 3.985c-.01 0-.016.007-.016.016 0 .01.007.016.016.016h16.285v.017c.7-.004 1.289-.524 1.379-1.218.48-3.404 2.819-6.256 6.064-7.392 3.245-1.136 6.852-.366 9.35 1.995.144.133.34.193.532.165.193-.028.363-.142.462-.31.152-.264.1-.597-.123-.804z"/>
                <rect width="28.701" height="15.802" y="11.368" fill="url(#prefix__a)" fill-rule="nonzero" rx="7.901"/>
                <rect width="28.701" height="15.802" y="11.368" fill="#FF7907" fill-rule="nonzero" rx="7.901"/>
                <rect width="6.45" height="2.096" x="16.662" y="13.007" fill="#FFF" opacity=".359" rx="1.048"/>
                <path fill="#FFF" fill-rule="nonzero" d="M13.707 13.007H7.61c-3.216 0-5.92 2.58-5.996 5.855-.038 1.616.565 3.18 1.673 4.336 1.108 1.157 2.626 1.809 4.212 1.809h6.208c.5 0 .905-.413.905-.923V13.93c0-.51-.405-.923-.905-.923z"/>
            </g>
            <rect width="6.611" height="1.827" x="51.029" y="24.24" fill="#FFF" fill-rule="nonzero" rx=".914"/>
            <rect width="7.793" height="1.827" x="52.588" y="20.553" fill="#FFF" fill-rule="nonzero" rx=".914"/>
        </g>
    </g>
</svg>
