<svg xmlns="http://www.w3.org/2000/svg" width="32" height="32" viewBox="0 0 32 32">
    <g fill="none" fill-rule="evenodd">
        <g>
            <g>
                <g>
                    <path fill="#0D25BE" d="M15.25 18c1.588 0 .925.075 2.058.222.28.035.52.22.63.484.11.264.072.568-.1.796-.172.228-.45.345-.73.307-1.045-.135-.32-.209-1.858-.209-4.628 0-6.798.693-7.718 1.564-.46.435-.682.925-.813 1.592-.088.45-.083 1.062-.096 1.644H17.01c.285-.004.55.147.692.397.144.249.144.557 0 .806-.143.25-.407.401-.692.397H5.79C5.352 26 5 25.642 5 25.2c0-.95-.003-1.869.17-2.756.175-.888.557-1.76 1.287-2.45C7.917 18.612 10.477 18 15.25 18zm.25-13c3.028 0 5.5 2.472 5.5 5.5S18.528 16 15.5 16 10 13.528 10 10.5 12.472 5 15.5 5zm0 1.571c-2.179 0-3.929 1.75-3.929 3.929s1.75 3.929 3.929 3.929 3.929-1.75 3.929-3.929-1.75-3.929-3.929-3.929z" transform="translate(-510 -104) translate(411 100) translate(99 4)"/>
                    <path fill="#FD0000" d="M22.628 19.47v3.158H19.47c-.314-.005-.607.16-.765.432-.159.272-.159.608 0 .88.158.271.45.436.765.432h3.158v3.158c-.004.314.16.607.432.765.272.159.608.159.88 0 .271-.158.436-.45.432-.765v-3.158h3.158c.314.004.607-.161.765-.433.159-.271.159-.607 0-.879-.158-.271-.45-.437-.765-.432h-3.158V19.47c.003-.236-.09-.463-.256-.63-.167-.166-.394-.258-.63-.254-.48.007-.864.403-.858.884z" transform="translate(-510 -104) translate(411 100) translate(99 4) rotate(45 23.5 23.5)"/>
                </g>
            </g>
        </g>
    </g>
</svg>
