<svg xmlns="http://www.w3.org/2000/svg" width="36" height="36" viewBox="0 0 36 36">
    <g fill="none">
        <path fill="#0D25BE" d="M18 0C8.059 0 0 8.059 0 18s8.059 18 18 18 18-8.059 18-18c0-4.774-1.896-9.352-5.272-12.728C27.352 1.896 22.774 0 18 0z"/>
        <path fill="#FFF" d="M24.678 15.678l-7.2 7.2c-.338.34-.798.532-1.278.532s-.94-.191-1.278-.532l-3.6-3.6c-.706-.706-.706-1.85 0-2.556s1.85-.706 2.556 0l2.322 2.34 5.922-5.94c.706-.706 1.85-.706 2.556 0s.706 1.85 0 2.556z"/>
    </g>
</svg>
