<svg xmlns="http://www.w3.org/2000/svg" width="32" height="32" viewBox="0 0 32 32">
    <path fill="#0D25BE" fill-rule="nonzero" d="M27 4a4 4 0 0 1 4 4v16a4 4 0 0 1-4 4H5a4 4 0 0 1-4-4V8a4 4 0 0 1 4-4h22zm0 2H5a2 2 0 0 0-1.995 1.85L3 8v16a2 2 0 0 0 1.85 1.995L5 26h22a2 2 0 0 0 1.995-1.85L29 24V8a2 2 0 0 0-1.85-1.995L27 6zM5.424 15.877l.636-.466c5.835-4.238 9.006-5.332 10.549-3.668.898.97.76 2.48.538 3.995l-.064.432a15.128 15.128 0 0 0-.183 1.552c.533-.36 1.044-.749 1.53-1.166l.588-.48c1.323-1.058 2.658-1.92 3.82-1.047.695.525.785 1.382.823 2.055l.01.178c.461-.294 1.07-.923 1.17-1.694l.013-.167a1.065 1.065 0 0 1 1.104-1.016c.284.008.554.126.75.327.195.202.3.471.292.749-.048 1.634-1.195 3.007-2.311 3.644-.831.474-1.633.56-2.258.239-.774-.397-.862-1.234-.9-1.89l-.023-.406a5.472 5.472 0 0 0-.013-.15 14.45 14.45 0 0 0-1.68 1.257l-.39.32c-.98.797-1.973 1.525-2.9 1.525-.34 0-.671-.103-.948-.295-.914-.616-.9-1.78-.728-3.083l.18-1.226c.112-.794.226-1.827.034-2.184l-.046-.065c-.01-.01-1.274-.802-8.295 4.398-.472.35-1.145.26-1.503-.201a1.03 1.03 0 0 1 .205-1.467z"/>
</svg>
