<svg xmlns="http://www.w3.org/2000/svg" width="32" height="32" viewBox="0 0 32 32">
    <path fill="#0D25BE" d="M16.013 16c.027 0 .067 0 .094.013.053 0 .106.014.173.027.014 0 .027 0 .04.014.08.026.16.066.227.106.053.04.107.08.16.133h.013l3.627 3.64c.4.4.4 1.027 0 1.414-.387.4-1.014.4-1.413 0L17 19.427V26c0 .547-.44 1-1 1-.546 0-1-.453-1-1v-6.573l-1.92 1.92c-.4.4-1.026.4-1.413 0-.4-.387-.4-1.027 0-1.414l3.627-3.64c.093-.093.2-.16.32-.213.12-.053.24-.08.373-.08h.026zm1.32-11c.254 0 .507.093.707.293l6.667 6.667v.013c.053.04.093.094.133.147.04.053.067.107.08.174.027.04.04.093.053.133.027.08.027.16.027.24v10.546C25 25.307 23.32 27 21.213 27H19.64c-.546 0-1-.44-1-1 0-.547.454-1 1-1h1.573c1 0 1.787-.8 1.787-1.787v-9.546h-3c-2.013 0-3.653-1.64-3.666-3.667V7h-5.547C9.8 7 9 7.8 9 8.787v14.426c0 .494.2.934.52 1.267.333.333.773.52 1.267.52h1.586c.56 0 1 .453 1 1 0 .56-.44 1-1 1h-1.586C8.693 27 7 25.306 7 23.213V8.787C7 6.693 8.707 5.013 10.787 5h6.546zm1 3.413V10c.014.92.747 1.667 1.667 1.667h1.587l-3.253-3.254z"/>
</svg>
