<svg xmlns="http://www.w3.org/2000/svg" width="32" height="32" viewBox="0 0 32 32">
    <g fill="#0D25BE" fill-rule="evenodd">
        <path d="M15.25 18c1.588 0 .925.075 2.058.222.28.035.52.22.63.484.11.264.072.568-.1.796-.172.228-.45.345-.73.307-1.045-.135-.32-.209-1.858-.209-4.628 0-6.798.693-7.718 1.564-.46.435-.682.925-.813 1.592-.088.45-.083 1.062-.096 1.644h8.386c.285-.004.55.147.692.397.144.249.144.557 0 .806-.143.25-.407.401-.692.397H5.79C5.352 26 5 25.642 5 25.2c0-.95-.003-1.869.17-2.756.175-.888.557-1.76 1.287-2.45C7.917 18.612 10.477 18 15.25 18zm.25-13c3.028 0 5.5 2.472 5.5 5.5S18.528 16 15.5 16 10 13.528 10 10.5 12.472 5 15.5 5zm0 1.571c-2.179 0-3.929 1.75-3.929 3.929s1.75 3.929 3.929 3.929 3.929-1.75 3.929-3.929-1.75-3.929-3.929-3.929z"/>
        <path fill-rule="nonzero" d="M28.117 22.707c.37 0 .68.301.68.672v.765c0 1.808-1.515 3.291-3.388 3.291h-3.543v.962c0 .22-.12.43-.323.533-.095.047-.19.07-.298.07-.12 0-.227-.023-.334-.093l-2.625-1.634-.072-.05c-.135-.11-.214-.28-.214-.46 0-.208.107-.394.286-.51l2.625-1.634c.203-.127.441-.127.644-.023.203.104.322.313.322.533v.974h3.532c1.11 0 2.016-.881 2.016-1.959v-.765c0-.37.31-.672.692-.672zm-2.672-4.636c.203-.104.453-.092.644.024l2.625 1.634.083.064c.128.118.203.283.203.457 0 .209-.107.394-.286.51l-2.625 1.634c-.096.058-.215.093-.334.093-.096 0-.203-.023-.298-.07-.203-.104-.323-.313-.323-.533V20.9h-3.531c-1.11 0-2.016.881-2.016 1.959v.765c0 .37-.31.672-.692.672-.382 0-.692-.301-.692-.672v-.765c0-1.808 1.515-3.292 3.388-3.292h3.532v-.961c0-.22.119-.43.322-.534z"/>
    </g>
</svg>
